<?xml version="1.0" encoding="UTF-8"?>
<svg id="Layer_1" xmlns="http://www.w3.org/2000/svg" viewBox="0 0 1360 308.83">
  <defs>
    <style>
      .cls-1 {
        fill: #010101;
      }

      .cls-2 {
        fill: #0052cc;
      }
    </style>
  </defs>
  <g>
    <path class="cls-1" d="M0,4.48h36.45v165.6H0V4.48Z"/>
    <path class="cls-1" d="M69.69,4.48h49.87l70.33,115.09h.64V4.48h36.45v165.6h-47.95L106.78,52.43h-.64v117.65h-36.45V4.48Z"/>
    <path class="cls-1" d="M342.72,45.4c-3.2-3.84-7.03-6.39-12.15-8.31-5.12-1.92-9.59-2.56-14.71-2.56-2.56,0-5.12,0-8.31.64-2.56.64-5.75,1.92-7.67,3.2-2.56,1.28-4.48,3.2-6.39,5.12-1.28,1.92-1.92,4.48-1.92,7.67,0,5.12,1.92,8.95,5.75,11.51,3.84,2.56,8.31,5.12,14.07,7.03,5.75,1.92,11.51,3.84,18.54,5.75,6.39,1.92,12.79,4.48,18.54,7.67,5.75,3.2,10.23,8.31,14.07,14.07,3.84,5.75,5.75,13.43,5.75,23.02,0,8.95-1.92,17.26-5.12,24.3-3.2,7.03-8.31,12.79-14.07,17.26-5.75,4.48-12.79,7.67-20.46,10.23-7.67,1.92-15.98,3.2-24.3,3.2-10.87,0-20.46-1.92-30.05-5.12-8.95-3.2-17.9-8.31-25.58-15.98l26.22-28.77c3.84,5.12,8.31,8.95,14.07,11.51,5.75,2.56,11.51,3.84,17.9,3.84,3.2,0,5.75-.64,8.95-1.28,3.2-.64,5.75-1.92,8.31-3.2,2.56-1.28,4.48-3.2,5.75-5.12,1.28-1.92,1.92-4.48,1.92-7.67,0-5.12-1.92-8.95-5.75-11.51-3.84-3.2-8.31-5.12-14.71-7.67-5.75-1.92-12.15-3.84-18.54-6.39-6.39-1.92-12.79-4.48-18.54-8.31-5.75-3.2-10.87-7.67-14.71-13.43-3.84-5.75-5.75-12.79-5.75-22.38,0-8.95,1.92-16.62,5.12-23.66,3.2-6.39,8.31-12.15,14.07-16.62,5.75-4.48,12.79-7.67,20.46-10.23,7.67-2.56,15.35-3.2,23.66-3.2,9.59,0,18.54,1.28,26.85,3.84,8.95,2.56,16.62,7.03,23.66,13.43l-24.94,28.13Z"/>
    <path class="cls-1" d="M427.12,37.09h-47.32V5.12h131.08v31.97h-47.32v133.63h-36.45V37.09Z"/>
    <path class="cls-1" d="M583.77,4.48h30.05l72.25,165.6h-40.92l-14.07-35.17h-64.58l-14.07,35.17h-40.28L583.77,4.48ZM597.84,53.07l-19.82,51.15h40.28l-20.46-51.15Z"/>
    <path class="cls-1" d="M911.78,4.48h36.45v165.6h-36.45V4.48Z"/>
    <path class="cls-1" d="M981.48,4.48h63.94c8.31,0,16.62.64,23.66,2.56,7.67,1.92,14.07,4.48,19.82,8.31,5.75,3.84,10.23,8.95,13.43,15.35,3.2,6.39,5.12,14.71,5.12,24.3,0,11.51-3.2,21.74-8.95,30.05-6.39,8.31-14.71,13.43-26.85,15.35l42.2,69.69h-43.48l-34.53-66.5h-17.9v66.5h-36.45V4.48h0ZM1017.92,73.53h21.74c3.2,0,7.03,0,10.23-.64,3.84,0,7.03-.64,10.23-1.92,3.2-1.28,5.12-3.2,7.67-5.75,1.92-2.56,3.2-5.75,3.2-10.23s-.64-7.67-2.56-10.23c-1.92-2.56-3.84-4.48-6.39-5.75-2.56-1.28-5.75-1.92-8.95-2.56-3.2-.64-7.03-.64-10.23-.64h-23.66v37.72h-1.28Z"/>
    <path class="cls-1" d="M1133.01,4.48h36.45v165.6h-36.45V4.48Z"/>
    <path class="cls-1" d="M1202.71,4.48h49.87l70.33,115.09h.64V4.48h36.45v165.6h-47.95l-72.25-117.65h-.64v117.65h-36.45V4.48h0Z"/>
    <path class="cls-2" d="M716.88,4.47h36.81v62.3h71.51V4.47h36.82v167.08h-36.82v-72.21h-71.51v72.21h-36.81V4.47Z"/>
  </g>
  <g>
    <path class="cls-2" d="M126.6,200.77h-11.51v-4.48h27.49v4.48h-11.51v30.69h-5.12l.64-30.69h0Z"/>
    <path class="cls-2" d="M168.8,196.3h4.48l15.35,35.17h-5.75l-3.84-8.95h-16.62l-3.2,8.95h-5.75l15.35-35.17ZM177.11,218.67l-6.39-15.98h0l-6.39,15.98h12.79Z"/>
    <path class="cls-2" d="M202.69,196.3h4.48v30.69h15.98v4.48h-21.1v-35.17h.64Z"/>
    <path class="cls-2" d="M238.5,196.3h23.02v4.48h-17.9v10.23h16.62v4.48h-16.62v11.51h19.18v4.48h-23.66l-.64-35.17h0Z"/>
    <path class="cls-2" d="M279.42,196.3h6.39l19.18,28.77h0v-28.77h4.48v35.17h-6.39l-19.82-28.77h0v28.77h-5.12v-35.17h1.28Z"/>
    <path class="cls-2" d="M336.32,200.77h-11.51v-4.48h27.49v4.48h-11.51v30.69h-4.48v-30.69Z"/>
    <path class="cls-2" d="M391.31,196.3h12.15c1.28,0,3.2,0,4.48.64,1.28.64,2.56.64,3.2,1.92.64.64,1.92,1.92,2.56,2.56.64.64.64,2.56.64,3.84,0,1.92-.64,3.84-1.92,5.12-1.28,1.28-2.56,1.92-4.48,2.56h0c1.28,0,1.92.64,3.2.64.64.64,1.92,1.28,2.56,1.92.64.64,1.28,1.92,1.92,2.56.64,1.28.64,1.92.64,3.2s-.64,3.2-1.28,4.48c-.64,1.28-1.28,2.56-2.56,3.2-1.28.64-2.56,1.28-3.84,1.92-1.28.64-3.2.64-5.12.64h-12.15v-35.17ZM396.43,211h8.95c.64,0,1.28-.64,1.92-.64.64-.64,1.28-1.28,1.28-1.92.64-.64.64-1.28.64-2.56s-.64-2.56-1.28-3.84c-.64-1.28-2.56-1.28-4.48-1.28h-7.67l.64,10.23h0ZM396.43,226.99h9.59c.64,0,1.92-.64,2.56-.64.64-.64,1.28-1.28,1.92-1.92.64-.64.64-1.92.64-3.2,0-1.92-.64-3.84-1.92-4.48-1.28-1.28-3.2-1.28-5.75-1.28h-7.03v11.51Z"/>
    <path class="cls-2" d="M432.87,196.3h23.02v4.48h-17.9v10.23h16.62v4.48h-16.62v11.51h19.18v4.48h-23.66l-.64-35.17h0Z"/>
    <path class="cls-2" d="M482.11,216.12l-13.43-20.46h6.39l9.59,15.35,10.23-15.35h5.75l-13.43,20.46v15.35h-4.48v-15.35h-.64Z"/>
    <path class="cls-2" d="M530.7,232.1c-2.56,0-5.12-.64-7.67-1.28-2.56-.64-4.48-2.56-5.75-3.84-1.92-1.92-3.2-3.84-3.84-5.75-.64-2.56-1.28-4.48-1.28-7.03s.64-5.12,1.28-7.03c.64-2.56,1.92-4.48,3.84-5.75,1.92-1.92,3.84-3.2,5.75-3.84,2.56-.64,4.48-1.28,7.67-1.28s5.12.64,7.67,1.28c2.56.64,4.48,2.56,5.75,3.84,1.92,1.92,3.2,3.84,3.84,5.75.64,2.56,1.28,4.48,1.28,7.03s-.64,5.12-1.28,7.03c-.64,2.56-1.92,4.48-3.84,5.75-1.92,1.92-3.84,3.2-5.75,3.84-2.56,1.28-5.12,1.28-7.67,1.28ZM530.7,227.63c1.92,0,3.84-.64,5.75-1.28,1.92-.64,3.2-1.92,4.48-3.2,1.28-1.28,1.92-2.56,2.56-4.48.64-1.92.64-3.84.64-5.75s0-3.84-.64-5.75c-.64-1.92-1.28-3.2-2.56-4.48-1.28-1.28-2.56-2.56-4.48-3.2-1.92-.64-3.2-1.28-5.75-1.28-1.92,0-3.84.64-5.75,1.28-1.92.64-3.2,1.92-4.48,3.2-1.28,1.28-1.92,2.56-2.56,4.48-.64,1.92-.64,3.84-.64,5.75s0,3.84.64,5.75c.64,1.92,1.28,3.2,2.56,4.48,1.28,1.28,2.56,2.56,4.48,3.2,1.92.64,3.2,1.28,5.75,1.28Z"/>
    <path class="cls-2" d="M565.87,196.3h6.39l19.18,28.77h0v-28.77h5.12v35.17h-6.39l-19.82-28.77h0v28.77h-4.48v-35.17Z"/>
    <path class="cls-2" d="M614.46,196.3h12.15c2.56,0,4.48,0,6.39.64,1.92.64,3.2,1.28,5.12,2.56,1.92,1.28,2.56,1.92,3.2,3.2s1.92,2.56,1.92,3.84c.64,1.28.64,2.56,1.28,3.84,0,1.28.64,2.56.64,3.84,0,2.56-.64,4.48-1.28,6.39-.64,1.92-1.92,3.84-3.84,5.75-1.92,1.92-3.84,3.2-5.75,3.84-2.56,1.28-5.12,1.28-8.31,1.28h-11.51v-35.17ZM619.58,226.99h5.75c1.92,0,3.84,0,5.75-.64,1.92-.64,3.2-1.28,4.48-2.56,1.28-1.28,2.56-2.56,3.2-3.84.64-1.92,1.28-3.84,1.28-5.75,0-1.28,0-2.56-.64-3.84s-1.28-3.2-1.92-4.48c-1.28-1.28-2.56-2.56-4.48-3.2s-3.84-1.28-7.03-1.28h-7.03v25.58h.64Z"/>
    <g>
      <path class="cls-2" d="M981.48,196.3h12.15c1.28,0,3.2,0,4.48.64,1.28.64,2.56.64,3.2,1.92.64.64,1.92,1.92,2.56,2.56.64,1.28.64,2.56.64,3.84,0,1.92-.64,3.84-1.92,5.12-1.28,1.28-2.56,1.92-4.48,2.56h0c1.28,0,1.92.64,3.2.64.64.64,1.92,1.28,2.56,1.92.64.64,1.28,1.92,1.92,2.56.64,1.28.64,1.92.64,3.2s-.64,3.2-1.28,4.48c-.64,1.28-1.28,2.56-2.56,3.2s-2.56,1.28-3.84,1.92c-1.28.64-3.2.64-5.12.64h-12.15v-35.17ZM986.59,211h8.95c.64,0,1.28-.64,1.92-.64.64-.64,1.28-1.28,1.28-1.92.64-.64.64-1.28.64-2.56s-.64-2.56-1.28-3.84c-.64-1.28-2.56-1.28-4.48-1.28h-7.67l.64,10.23h0ZM986.59,226.99h9.59c.64,0,1.92-.64,2.56-.64.64-.64,1.28-1.28,1.92-1.92.64-.64.64-1.92.64-3.2,0-1.92-.64-3.84-1.92-4.48-1.28-.64-3.2-1.28-5.75-1.28h-7.03v11.51Z"/>
      <path class="cls-2" d="M1074.83,196.3h12.15c2.56,0,3.84,0,5.75.64,1.28.64,2.56,1.28,3.2,2.56.64.64,1.28,1.92,1.92,3.2.64,1.28.64,2.56.64,3.2,0,1.28,0,1.92-.64,3.2-.64,1.28-1.28,1.92-1.92,2.56s-1.92,1.28-2.56,1.92c-1.28.64-2.56.64-3.84,1.28l10.23,15.98h-5.75l-8.95-15.35h-5.12v15.35h-4.48v-34.53h-.64ZM1079.3,211.64h8.95c.64,0,1.92-.64,2.56-.64.64-.64,1.28-1.28,1.92-1.92s.64-1.92.64-3.2,0-1.92-.64-3.2c-.64-.64-1.28-1.28-1.92-1.92-.64-.64-1.28-.64-2.56-.64h-8.95v11.51Z"/>
      <path class="cls-2" d="M1114.47,196.3h12.15c2.56,0,4.48,0,6.39.64,1.92.64,3.2,1.28,5.12,2.56,1.28.64,2.56,1.92,3.2,3.2.64,1.28,1.92,2.56,1.92,3.84.64,1.28.64,2.56,1.28,3.84,0,1.28.64,2.56.64,3.84,0,2.56-.64,4.48-1.28,6.39-.64,1.92-1.92,3.84-3.84,5.75-1.92,1.92-3.84,3.2-5.75,3.84-2.56,1.28-5.12,1.28-8.31,1.28h-11.51v-35.17ZM1119.59,226.99h5.75c1.92,0,3.84,0,5.75-.64,1.92-.64,3.2-1.28,4.48-2.56,1.28-1.28,2.56-2.56,3.2-3.84.64-1.92,1.28-3.84,1.28-5.75,0-1.28,0-2.56-.64-3.84-.64-1.28-1.28-3.2-1.92-4.48-1.28-1.28-2.56-2.56-4.48-3.2s-3.84-1.28-7.03-1.28h-7.03v25.58h.64Z"/>
      <path class="cls-2" d="M1162.43,196.3h23.02v4.48h-17.9v10.23h16.62v4.48h-16.62v11.51h19.18v4.48h-23.66v-35.17h-.64Z"/>
      <path class="cls-2" d="M1202.71,196.3h12.15c2.56,0,3.84,0,5.75.64,1.28.64,2.56,1.28,3.2,2.56.64.64,1.28,1.92,1.92,3.2.64,1.28.64,2.56.64,3.2,0,1.28,0,1.92-.64,3.2-.64,1.28-1.28,1.92-1.92,2.56-.64.64-1.92,1.28-2.56,1.92-1.28.64-2.56.64-3.84,1.28l10.23,15.98h-5.75l-8.95-15.35h-5.12v15.35h-4.48v-34.53h-.64ZM1207.82,211.64h8.95c.64,0,1.92-.64,2.56-.64.64-.64,1.28-1.28,1.92-1.92.64-.64.64-1.92.64-3.2s0-1.92-.64-3.2c-.64-.64-1.28-1.28-1.92-1.92-.64-.64-1.28-.64-2.56-.64h-8.95v11.51Z"/>
      <path class="cls-2" d="M1244.27,223.79c.64,1.28,1.92,2.56,3.2,2.56,1.28.64,2.56.64,4.48.64.64,0,1.92,0,2.56-.64.64,0,1.28-.64,2.56-1.28.64-.64,1.28-1.28,1.92-1.92s.64-1.28.64-2.56-.64-2.56-1.28-3.2c-.64-.64-1.92-1.28-3.2-1.92-1.28-.64-2.56-.64-4.48-1.28-1.28-.64-3.2-1.28-4.48-1.92-1.28-.64-2.56-1.92-3.2-3.2-.64-1.28-1.28-3.2-1.28-5.75,0-1.28,0-1.92.64-3.2.64-1.28,1.28-1.92,1.92-3.2,1.28-1.28,1.92-1.92,3.84-2.56,1.28-.64,3.2-1.28,5.75-1.28,1.92,0,3.84,0,5.75.64,1.92.64,3.2,1.92,4.48,3.2l-3.84,3.84c-.64-.64-1.28-1.92-2.56-2.56-1.28-.64-2.56-.64-3.84-.64s-2.56,0-3.2.64-1.28.64-1.92,1.28c-.64.64-.64,1.28-1.28,1.92,0,.64-.64,1.28-.64,1.92,0,1.28.64,2.56,1.28,3.2.64.64,1.92,1.28,3.2,1.92s2.56.64,4.48,1.28c1.28.64,3.2.64,4.48,1.92,1.28.64,2.56,1.92,3.2,3.2.64,1.28,1.28,3.2,1.28,5.12s-.64,3.2-1.28,4.48c-.64,1.28-1.28,2.56-2.56,3.2-1.28.64-2.56,1.92-3.84,1.92-1.28.64-3.2.64-5.12.64-2.56,0-4.48-.64-6.39-1.28-1.92-.64-3.84-1.92-5.12-3.84l3.84-1.28Z"/>
      <path class="cls-2" d="M1021.12,213.56c0-8.95,5.75-16.62,14.71-17.9,7.03-1.28,13.43.64,18.54,6.39,2.56,2.56,3.2,5.75,3.84,8.95.64,5.12,0,9.59-3.2,13.43-2.56,3.84-6.39,6.39-10.87,7.67-5.12,1.28-10.23,0-14.71-3.2-4.48-3.2-7.03-7.03-7.67-12.15-.64-1.28-.64-1.92-.64-3.2ZM1055.01,205.25q0,.64,0,0,0,.64.64.64h0q-.64,0-.64-.64h0c-.64-1.28-1.92-2.56-2.56-3.84,0,.64-.64.64-1.28.64h-.64q-.64,0-.64.64v1.28c-.64-.64-1.28-.64-1.92-.64h0c-.64.64-.64,1.28,0,1.92v.64h1.28c.64-.64,1.92-1.28,2.56-1.92,0,.64.64,1.28.64,1.92s.64.64.64.64c.64,0,.64-.64,1.28-.64h0q-.64-.64-1.28-1.28v-.64h.64c.64.64.64,1.28,1.28,1.28ZM1035.83,200.13s.64,0,0,0c0-.64-.64-1.28-.64-1.92s-1.28-.64-1.92,0h0c-.64,0-.64.64-1.28.64h-1.28q-.64-.64-1.28,0c-4.48,2.56-7.03,7.03-7.67,11.51q0,.64.64.64h.64c.64,0,1.28.64,1.92.64q.64.64,1.28.64h.64q.64.64,1.28.64s.64,0,.64.64v.64c0,.64-.64.64-.64,1.28s0,.64-.64,1.28v.64c0,.64.64.64.64,1.28.64.64,1.28,1.28,1.92,1.28,0,0,.64,0,.64.64v1.28c0,.64.64.64.64,1.28s.64,1.28.64,1.92v.64c.64.64.64,1.92,1.28,2.56.64.64,1.28,1.28,1.92.64l-.64-.64c-.64-.64-.64-1.28,0-1.92v-.64q0-.64.64-.64c.64,0,1.28-.64.64-1.28v-.64q0-.64.64-.64c.64,0,.64-.64.64-1.28s0-.64.64-.64c1.28-.64,1.92-1.92,1.28-3.2,0-.64-.64-.64-1.28-1.28-.64,0-.64-.64-1.28-.64h0q-.64,0-1.28-.64s0-.64-.64-.64-.64-.64-1.28-.64-1.28,0-1.92.64h-.64s0-.64-.64-.64h-1.28c-.64.64-1.28.64-1.28.64h0q0-.64-.64-.64s0-.64-.64-.64v-.64h-.64q-.64.64-.64,0h0q0-.64.64-1.28h.64c.64,0,1.92,0,2.56.64h.64c.64-.64,1.28-1.28,1.28-1.92s0-1.28.64-1.28c.64-.64,1.28-1.28,2.56-1.28q.64,0,.64-.64t.64,0q.64,0,1.28.64h.64q.64-.64,1.28-1.28-.64,0-.64-.64c0-.64-.64-.64-.64-1.28s-.64,0-.64,0c0,0-.64.64-1.28.64h-1.92c-.64,0-1.28.64-1.28.64v.64s0-.64-.64-.64h-.64q-.64,0-.64-.64v-.64q0-.64.64-.64.64,0,1.28-.64h.64s.64.64.64,0c.64-1.92,1.92-2.56,2.56-2.56ZM1053.09,224.43h0c2.56-3.2,3.84-6.39,3.84-9.59,0-1.92,0-3.84-.64-5.75v-.64s-.64,0-.64-.64h-.64c-.64,0-1.28.64-1.92,1.28h-.64c-.64,0-.64-.64-1.28-.64-.64-.64-1.28-.64-1.92-.64h-1.28c-.64,0-1.28.64-1.92.64s-1.28.64-1.28,1.28v1.28q0,.64,0,.64l-.64.64v2.56c.64,1.92,1.92,2.56,3.84,1.92,1.28-.64,1.92-.64,3.2,0l.64.64v1.28q.64.64,0,1.28h0q-.64.64,0,1.28c.64,1.28,1.28,2.56,1.28,3.2ZM1051.81,201.41h0q-.64-.64-1.28-1.28c0,.64.64.64,1.28,1.28Z"/>
    </g>
  </g>
  <path class="cls-2" d="M903.47,108.06c-8.31-7.03-19.18-12.79-31.97-17.26v6.39c12.79,5.12,23.66,11.51,31.97,18.54v-7.67ZM966.77,251.92l-56.27-37.09c5.75-5.12,9.59-10.87,12.15-17.26,2.56-5.75,3.84-10.87,3.84-16.62v-1.92h-19.18l-.64.64c-1.28.64-1.92,1.92-2.56,2.56-2.56,1.92-5.75,3.84-8.95,5.75-24.94,15.35-61.38,24.3-100.39,24.3s-75.45-8.95-100.39-24.3c-3.2-1.92-5.75-3.84-8.95-5.75-1.28-.64-1.92-1.92-3.2-2.56l-.64-.64h-19.18v1.92c0,5.75,1.28,11.51,3.84,16.62,14.07,31.97,67.14,53.71,127.88,53.71,24.3,0,47.95-3.84,69.06-10.23l60.74,54.35s7.03,7.67,21.1,12.79c1.92.64,3.84.64,5.75.64,3.2,0,5.75-.64,8.95-1.92,7.67-3.84,13.43-10.87,16.62-19.82,5.12-15.35,1.92-26.22-9.59-35.17ZM936.08,278.14c-.64,3.2-1.28,6.39-.64,9.59l-63.3-51.79s-13.43-12.79,12.15-28.13c0,0-15.35,14.07-3.84,21.1,8.95,5.12,43.48,29.41,59.46,40.28-1.92,1.92-3.2,5.12-3.84,8.95ZM970.61,283.25c-2.56,10.23-10.23,17.26-16.62,18.54h-2.56c-4.48-.64-7.03-3.84-7.67-5.75-1.92-4.48-2.56-9.59-1.28-15.35,2.56-10.23,10.23-17.26,16.62-18.54h2.56c4.48.64,7.03,3.84,7.67,5.75,1.92,3.84,2.56,9.59,1.28,15.35ZM709.73,99.75v-6.39c-15.35,7.03-28.13,15.98-36.45,26.22l2.56,6.39c7.67-10.23,19.18-19.18,33.89-26.22Z"/>
</svg>