<svg width="50" height="50" viewBox="0 0 50 50" fill="none" xmlns="http://www.w3.org/2000/svg">
<path d="M4.78729 25.0027C4.78729 11.6481 17.5077 2.02233 30.2742 5.4477V9.40316C19.6461 5.82542 8.57482 13.7746 8.57482 25.0027C8.57482 29.8279 10.6746 34.2449 14.1124 37.3012V25.0027C14.1124 15.8078 25.0161 10.5624 32.1679 16.7515C32.1679 11.8959 32.1679 11.0329 32.1679 6.05716L45.5069 10.7073C40.9883 4.2362 33.491 0 24.9997 0C11.1921 0 0 11.1927 0 25C0 38.3734 10.5005 49.2949 23.7075 49.9668L17.9002 43.9473C10.1825 41.0321 4.78729 33.5909 4.78729 25.0027Z" fill="white"/>
<path d="M32.1661 6.05469C52.8883 13.8829 47.7469 45.2472 25.0323 45.2472C23.2203 45.2472 21.4653 45.0039 19.7924 44.5553V40.5991C36.6915 46.2891 49.279 24.5459 35.9536 12.701V25.0003C35.9536 33.1957 27.1095 38.5984 19.7924 34.5786V29.8244C21.097 31.2402 22.9596 32.1336 25.0323 32.1336C31.1087 32.1336 34.5482 24.8167 30.272 20.1751C25.8464 15.3717 17.8984 18.584 17.8984 25.0001C17.8984 28.803 17.8984 40.081 17.8984 43.9446L23.7057 49.9642C38.0289 50.6989 49.998 39.2901 49.998 24.9973C49.998 19.6809 48.3339 14.7556 45.5051 10.7047L32.1661 6.05469Z" fill="white"/>
</svg>
